<svg width="100" height="32" viewBox="0 0 100 32" fill="none" xmlns="http://www.w3.org/2000/svg">
<path fill-rule="evenodd" clip-rule="evenodd" d="M5.8626 0H30.7786V26.1374L27.6031 29.1908L24.916 32H0V5.8626L2.9313 2.9313L5.8626 0Z" fill="#101828"/>
<path d="M8.46198 23.2061L20.0406 5.76489H22.2391V9.92734L11.5692 26.1374H8.46198V23.2061ZM8.46198 9.95665V5.76489H22.2391V9.95665H8.46198Z" fill="white"/>
<path d="M99.8411 5.76489V9.95665H94.4769V26.1374H90.2851V9.95665H84.7156V5.76489H99.8411Z" fill="#101828"/>
<path d="M80.7156 26.1374H76.5239V5.76489H80.7156V26.1374Z" fill="#101828"/>
<path d="M72.5239 26.37H68.3327L60.4562 13.425V26.37H56.265V6H60.4562L68.3327 18.9205V6H72.5239V26.37Z" fill="#101828"/>
<path d="M37.1395 18.8092V5.7356H41.3313V18.8678C41.3313 19.2391 41.4095 19.6104 41.5658 19.9817C41.7417 20.3335 41.9859 20.6559 42.2986 20.949C42.6113 21.2226 42.9728 21.4571 43.3832 21.6525C43.8131 21.8284 44.2821 21.9164 44.7902 21.9164C45.3569 21.9164 45.8455 21.7991 46.2559 21.5646C46.6858 21.3301 47.0278 21.0565 47.2818 20.7438C47.5554 20.4116 47.7508 20.0794 47.8681 19.7472C48.0049 19.3954 48.0733 19.1219 48.0733 18.9264V5.7356H52.265V18.8092C52.265 20.0208 52.0794 21.0858 51.7081 22.0043C51.3563 22.9228 50.8482 23.6947 50.1838 24.32C49.5194 24.9258 48.7279 25.3851 47.8095 25.6977C46.9105 25.9909 45.9139 26.1374 44.8195 26.1374C43.7252 26.1374 42.709 26.0006 41.771 25.727C40.8525 25.4339 40.0415 24.9942 39.338 24.408C38.654 23.8022 38.1166 23.04 37.7258 22.1215C37.3349 21.1835 37.1395 20.0794 37.1395 18.8092Z" fill="#101828"/>
</svg>
