<svg width="49" height="48" viewBox="0 0 49 48" fill="none" xmlns="http://www.w3.org/2000/svg">
<rect x="0.666626" width="48" height="48" rx="8" fill="#101828"/>
<path d="M21.0469 20.8534C21.7429 22.303 22.6917 23.6616 23.8933 24.8632C25.0948 26.0648 26.4535 27.0136 27.9031 27.7096C28.0278 27.7694 28.0901 27.7994 28.169 27.8224C28.4494 27.9041 28.7936 27.8454 29.0311 27.6754C29.0979 27.6275 29.155 27.5704 29.2694 27.4561C29.619 27.1064 29.7938 26.9316 29.9695 26.8174C30.6324 26.3864 31.487 26.3864 32.1499 26.8174C32.3257 26.9316 32.5005 27.1064 32.8501 27.4561L33.045 27.6509C33.5764 28.1824 33.8421 28.4481 33.9865 28.7335C34.2735 29.301 34.2735 29.9713 33.9865 30.5389C33.8421 30.8242 33.5764 31.09 33.045 31.6214L32.8873 31.779C32.3577 32.3087 32.0929 32.5735 31.7329 32.7757C31.3334 33.0001 30.7129 33.1615 30.2546 33.1601C29.8417 33.1589 29.5595 33.0788 28.995 32.9186C25.9616 32.0576 23.0993 30.4332 20.7113 28.0452C18.3233 25.6572 16.6988 22.7948 15.8379 19.7614C15.6777 19.197 15.5976 18.9148 15.5963 18.5018C15.595 18.0436 15.7563 17.4231 15.9807 17.0236C16.183 16.6636 16.4478 16.3988 16.9774 15.8691L17.1351 15.7115C17.6665 15.1801 17.9322 14.9143 18.2176 14.77C18.7852 14.4829 19.4554 14.4829 20.023 14.77C20.3084 14.9143 20.5741 15.1801 21.1055 15.7115L21.3004 15.9064C21.65 16.256 21.8248 16.4308 21.9391 16.6066C22.3701 17.2694 22.3701 18.124 21.9391 18.7869C21.8248 18.9627 21.65 19.1375 21.3004 19.4871C21.1861 19.6014 21.1289 19.6586 21.0811 19.7254C20.9111 19.9628 20.8524 20.3071 20.9341 20.5874C20.9571 20.6663 20.987 20.7287 21.0469 20.8534Z" stroke="white" stroke-width="2" stroke-linecap="round" stroke-linejoin="round"/>
</svg>
